/* XPM */
static char *result[] = {
/* columns rows colors chars-per-pixel */
"50 50 8 1 ",
"  c black",
". c #FF5722",
"X c #FF9800",
"o c #FFC107",
"O c #FFC20E",
"+ c #FFEB3B",
"@ c white",
"# c None",
/* pixels */
"##################################################",
"##################################################",
"##################################################",
"##################################################",
"##################################################",
"##################################################",
"##################################################",
"##################################################",
"##################################################",
"##################################################",
"######################      ######################",
"######################......######################",
"######################XXXXXX######################",
"######################oooooo######################",
"######################++++++######################",
"######################++++++######################",
"######################++++++######################",
"######################++++++######################",
"######################@@@@@@######################",
"######################++++++######################",
"######################++++++######################",
"######################++++++######################",
"######################++++++######################",
"######################++++++######################",
"######################++++++######################",
"######################++++++######################",
"######################++++++######################",
"######################++++++######################",
"######################++++++######################",
"######################++++++######################",
"######################++++++######################",
"######################++++++######################",
"######################++++++######################",
"######################++++++######################",
"######################++++++######################",
"######################OooooO######################",
"######################Oooooo######################",
"######################XXXXXX######################",
"######################XXXXXX######################",
"######################......######################",
"##################################################",
"##################################################",
"##################################################",
"##################################################",
"##################################################",
"##################################################",
"##################################################",
"##################################################",
"##################################################",
"##################################################"
};
