/* XPM */
static char *result[] = {
/* columns rows colors chars-per-pixel */
"50 50 8 1 ",
"  c black",
". c #FF7E00",
"X c #FFC20E",
"o c #FFF200",
"O c #EDAB50",
"+ c #F5E49C",
"@ c white",
"# c None",
/* pixels */
"##################################################",
"##################################################",
"##################################################",
"##################################################",
"##################################################",
"##################################################",
"##################################################",
"##################################################",
"##################################################",
"##################################################",
"###################....XXXX#######################",
"##################.OXXXooooXXX####################",
"#################.OXooooooooooX###################",
"################.OXooooooooooooX##################",
"###############.OXooooooooooooooX#################",
"##############.OXoooo@oooooooooooX################",
"#############..OXooo@@oooooooooooX################",
"#############.OXXoo@@+oooooooooooXX###############",
"#############.OXooo@+oooooooooooooX###############",
"#############.OXooooooooXXooooooooX###############",
"############..OXoooooooX##XoooooooX###############",
"############.OXXooooooX####XooooooXX##############",
"############.OXoooooooX####XoooooooX##############",
"############.OXooooooX###### XoooooX##############",
"############.OXooooooX###### XoooooX##############",
"############.OXooooooX###### XoooooX##############",
"############.OXooooooX###### XoooooX##############",
"############.OXoooooooX#### XooooooX##############",
"############.OXXooooooX#### XoooooXX##############",
"############..OXoooooooX## XooooooX###############",
"#############.OXooooooooX XoooooooX###############",
"#############.OXooooooooooooooooooX###############",
"#############.OXXooooooooooooooooXX###############",
"#############..OXooooooooooooooooX################",
"##############.OXooooooooooooooooX################",
"###############.OXooooooooooooooX#################",
"################.OXooooooooooooX##################",
"#################.OXooooooooooX###################",
"##################.OXXXooooXXX####################",
"###################....XXXX#######################",
"##################################################",
"##################################################",
"##################################################",
"##################################################",
"##################################################",
"##################################################",
"##################################################",
"##################################################",
"##################################################",
"##################################################"
};
