/* XPM */
static char *result[] = {
/* columns rows colors chars-per-pixel */
"50 50 8 1 ",
"  c black",
". c #FF7E00",
"X c #FFC20E",
"o c #FFF200",
"O c #EDAB50",
"+ c #F5E49C",
"@ c white",
"# c None",
/* pixels */
"##################################################",
"##################################################",
"##################################################",
"##################################################",
"##################################################",
"##################################################",
"##################################################",
"##################################################",
"##################################################",
"##################################################",
"########################XX....####################",
"######################XXooXXOO.###################",
"#####################XooooooXOO.##################",
"####################XooooooooXOO.#################",
"###################XXooooooooXXOO.################",
"###################Xoooooo@oooXOO.################",
"###################Xoooooo+@ooXOO.################",
"##################XXoooooo+@ooXXO..###############",
"##################Xoooooooo+@ooXOO.###############",
"##################Xooooooooo@ooXOO.###############",
"##################Xooooo XoooooXOO.###############",
"#################XXooooo XoooooXXO..##############",
"#################Xoooooo XooooooXOO.##############",
"#################Xoooooo XooooooXOO.##############",
"#################Xoooooo XooooooXOO.##############",
"#################Xoooooo XooooooXOO.##############",
"#################Xoooooo XooooooXOO.##############",
"#################Xoooooo XooooooXOO.##############",
"#################XXooooo XoooooXXO..##############",
"##################Xooooo XoooooXOO.###############",
"##################XooooooooooooXOO.###############",
"##################XooooooooooooXOO.###############",
"##################XXooooooooooXXO..###############",
"###################XooooooooooXOO.################",
"###################XooooooooooXOO.################",
"###################XXooooooooXXOO.################",
"####################XooooooooXOO.#################",
"#####################XooooooXOO.##################",
"######################XXooXXOO.###################",
"########################XX....####################",
"##################################################",
"##################################################",
"##################################################",
"##################################################",
"##################################################",
"##################################################",
"##################################################",
"##################################################",
"##################################################",
"##################################################"
};
