/* XPM */
static char *result[] = {
/* columns rows colors chars-per-pixel */
"50 50 6 1 ",
"  c black",
". c #FFC20E",
"X c #FFF200",
"o c #F5E49C",
"O c white",
"+ c None",
/* pixels */
"++++++++++++++++++++++++++++++++++++++++++++++++++",
"++++++++++++++++++++++++++++++++++++++++++++++++++",
"++++++++++++++++++++++++++++++++++++++++++++++++++",
"++++++++++++++++++++++++++++++++++++++++++++++++++",
"++++++++++++++++++++++++++++++++++++++++++++++++++",
"++++++++++++++++++++++++++++++++++++++++++++++++++",
"++++++++++++++++++++++++++++++++++++++++++++++++++",
"++++++++++++++++++++++++++++++++++++++++++++++++++",
"++++++++++++++++++++++++++++++++++++++++++++++++++",
"++++++++++++++++++++++++++++++++++++++++++++++++++",
"+++++++++++++++++++++++....+++++++++++++++++++++++",
"++++++++++++++++++++...XXXX...++++++++++++++++++++",
"+++++++++++++++++...XXXXXXXXXX...+++++++++++++++++",
"++++++++++++++++.XXXXXXXXXXXXXXXX.++++++++++++++++",
"++++++++++++++..XXXXXOXXXXXXXXXXXX..++++++++++++++",
"+++++++++++++.XXXXXOOOXXXXXXXXXXXXXX.+++++++++++++",
"+++++++++++++.XXXXOOooXXXXXXXXXXXXXX.+++++++++++++",
"++++++++++++.XXXXOOOoXXXXXXXXXXXXXXXX.++++++++++++",
"++++++++++++.XXXXOooXX....XXXXXXXXXXX.++++++++++++",
"++++++++++++.XXXXXXXX.    ..XXXXXXXXX.++++++++++++",
"+++++++++++.XXXXXXXX. ++++++.XXXXXXXXX.+++++++++++",
"+++++++++++.XXXXXXX. ++++++++.XXXXXXXX.+++++++++++",
"+++++++++++.XXXXXX. ++++++++++.XXXXXXX.+++++++++++",
"++++++++++.XXXXXXX. ++++++++++.XXXXXXXX.++++++++++",
"++++++++++.XXXXXXX. ++++++++++ .XXXXXXX.++++++++++",
"++++++++++.XXXXXXX. ++++++++++ .XXXXXXX.++++++++++",
"++++++++++.XXXXXXXX.++++++++++ .XXXXXXX.++++++++++",
"+++++++++++.XXXXXXX.++++++++++ .XXXXXX.+++++++++++",
"+++++++++++.XXXXXXXX.++++++++ .XXXXXXX.+++++++++++",
"+++++++++++.XXXXXXXXX.++++++ .XXXXXXXX.+++++++++++",
"++++++++++++.XXXXXXXXX..    .XXXXXXXX.++++++++++++",
"++++++++++++.XXXXXXXXXXX....XXXXXXXXX.++++++++++++",
"++++++++++++.XXXXXXXXXXXXXXXXXXXXXXXX.++++++++++++",
"+++++++++++++.XXXXXXXXXXXXXXXXXXXXXX.+++++++++++++",
"+++++++++++++.XXXXXXXXXXXXXXXXXXXXXX.+++++++++++++",
"++++++++++++++..XXXXXXXXXXXXXXXXXX..++++++++++++++",
"++++++++++++++++.XXXXXXXXXXXXXXXX.++++++++++++++++",
"+++++++++++++++++...XXXXXXXXXX...+++++++++++++++++",
"++++++++++++++++++++...XXXX...++++++++++++++++++++",
"+++++++++++++++++++++++....+++++++++++++++++++++++",
"++++++++++++++++++++++++++++++++++++++++++++++++++",
"++++++++++++++++++++++++++++++++++++++++++++++++++",
"++++++++++++++++++++++++++++++++++++++++++++++++++",
"++++++++++++++++++++++++++++++++++++++++++++++++++",
"++++++++++++++++++++++++++++++++++++++++++++++++++",
"++++++++++++++++++++++++++++++++++++++++++++++++++",
"++++++++++++++++++++++++++++++++++++++++++++++++++",
"++++++++++++++++++++++++++++++++++++++++++++++++++",
"++++++++++++++++++++++++++++++++++++++++++++++++++",
"++++++++++++++++++++++++++++++++++++++++++++++++++"
};
