/* XPM */
static char *result[] = {
/* columns rows colors chars-per-pixel */
"50 50 8 1 ",
"  c black",
". c #FF7E00",
"X c #FFC20E",
"o c #FFF200",
"O c #EDAB50",
"+ c #F5E49C",
"@ c white",
"# c None",
/* pixels */
"##################################################",
"##################################################",
"##################################################",
"##################################################",
"##################################################",
"##################################################",
"##################################################",
"##################################################",
"##################################################",
"##################################################",
"####################....XX########################",
"###################.OOXXooXX######################",
"##################.OOXooooooX#####################",
"#################.OOXooooooooX####################",
"################.OOXXooooooooXX###################",
"################.OOXooo@ooooooX###################",
"################.OOXoo@+ooooooX###################",
"###############..OXXoo@+ooooooXX##################",
"###############.OOXoo@+ooooooooX##################",
"###############.OOXoo@oooooooooX##################",
"###############.OOXoooooX oooooX##################",
"##############..OXXoooooX oooooXX#################",
"##############.OOXooooooX ooooooX#################",
"##############.OOXooooooX ooooooX#################",
"##############.OOXooooooX ooooooX#################",
"##############.OOXooooooX ooooooX#################",
"##############.OOXooooooX ooooooX#################",
"##############.OOXooooooX ooooooX#################",
"##############..OXXoooooX oooooXX#################",
"###############.OOXoooooX oooooX##################",
"###############.OOXooooooooooooX##################",
"###############.OOXooooooooooooX##################",
"###############..OXXooooooooooXX##################",
"################.OOXooooooooooX###################",
"################.OOXooooooooooX###################",
"################.OOXXooooooooXX###################",
"#################.OOXooooooooX####################",
"##################.OOXooooooX#####################",
"###################.OOXXooXX######################",
"####################....XX########################",
"##################################################",
"##################################################",
"##################################################",
"##################################################",
"##################################################",
"##################################################",
"##################################################",
"##################################################",
"##################################################",
"##################################################"
};
