/* XPM */
static char *result[] = {
/* columns rows colors chars-per-pixel */
"50 50 8 1 ",
"  c black",
". c #FF7E00",
"X c #FFC20E",
"o c #FFF200",
"O c #EDAB50",
"+ c #F5E49C",
"@ c white",
"# c None",
/* pixels */
"##################################################",
"##################################################",
"##################################################",
"##################################################",
"##################################################",
"##################################################",
"##################################################",
"##################################################",
"##################################################",
"##################################################",
"#######################XXXX....###################",
"####################XXXooooXXXO.##################",
"###################XooooooooooXO.#################",
"##################XooooooooooooXO.################",
"#################XooooooooooooooXO.###############",
"################Xooooooooooo@ooooXO.##############",
"################Xooooooooooo@@oooXO..#############",
"###############XXooooooooooo+@@ooXXO.#############",
"###############Xooooooooooooo+@oooXO.#############",
"###############XooooooooXXooooooooXO.#############",
"###############XoooooooX##XoooooooXO..############",
"##############XXooooooX####XooooooXXO.############",
"##############XoooooooX####XoooooooXO.############",
"##############XoooooX ######XooooooXO.############",
"##############XoooooX ######XooooooXO.############",
"##############XoooooX ######XooooooXO.############",
"##############XoooooX ######XooooooXO.############",
"##############XooooooX ####XoooooooXO.############",
"##############XXoooooX ####XooooooXXO.############",
"###############XooooooX ##XoooooooXO..############",
"###############XoooooooX XooooooooXO.#############",
"###############XooooooooooooooooooXO.#############",
"###############XXooooooooooooooooXXO.#############",
"################XooooooooooooooooXO..#############",
"################XooooooooooooooooXO.##############",
"#################XooooooooooooooXO.###############",
"##################XooooooooooooXO.################",
"###################XooooooooooXO.#################",
"####################XXXooooXXXO.##################",
"#######################XXXX....###################",
"##################################################",
"##################################################",
"##################################################",
"##################################################",
"##################################################",
"##################################################",
"##################################################",
"##################################################",
"##################################################",
"##################################################"
};
