/* XPM */
static char *_03d1df56a2e4a35af60f7130045f1b7[] = {
/* columns rows colors chars-per-pixel */
"50 50 14 1 ",
"  c black",
". c #36130B",
"X c #61372E",
"o c #464646",
"O c #455A64",
"+ c #9C5A3C",
"@ c #FFC20E",
"# c #E5AA7A",
"$ c gray63",
"% c #B4B4B4",
"& c #FAECB4",
"* c #FFF9BD",
"= c #C4C0C4",
"- c #CFD8DC",
/* pixels */
"--------------------------------------------------",
"--------------------------------------------------",
"--------------------------------------------------",
"--------------------------------------------------",
"-----------------OOOOOOOOOOOOOOO------------------",
"----------------OoO$$$$$$O$$$$ooO-----------------",
"---------------O$$%O$$$$oOO$$$$ooO----------------",
"--------------O$$$$O$$$$ oOO$$$$$$O---------------",
"-------------O$$$$$O$$$$$ooO$$$$ O$O--------------",
"------------O O$$$$O$$$=== O===OO$$$O-------------",
"-----------Ooo OO$$OOOOOOOOOOOO$==$$$O------------",
"----------O$$oo% OOXXX+XXX.XXXO$$=$$$$O-----------",
"---------OO$$$$%%O.XX++XXX.XXX+O$$$$OOOO----------",
"--------Oo OOO$$OX.XX+XXXX.XXX++OOOO $$$O---------",
"-------O$oooo$OOXX.XX+XXX#.XXX+XXO$$$$$$$O--------",
"------O$$$$$$$OXXX.XX+XXX#.XXX+XXXO$$$$$$$O-------",
"------OOOOOOOOOX#..XXXXXX#.XXX+XXXOOOOOOOOO-------",
"------O$$$$ ooOX#..XXXXXXX.XXX+XXXO=$$ooooO-------",
"------O$$$$$ooOX#..XXXX+XX.XXXXXXXO$$$$oooO-------",
"------O$$$$$$oOX#X.XXXX+XX.XXXXXXXO$$$$$ooO-------",
"------O$$$$$$oOXXX.XXXX+XX.XXXXXX+O$$$$$$oO-------",
"------O%%%%$$$OXXX.XXXX+XX.XXXXXX+O$$$$$$oO-------",
"------O$$$$$$$O@@@@@@@@@@@@@@@XXX+OOOOOOOOO-------",
"------O$$$$$$$O@@*@@*@@*@@*@@@@XX+O$$$$oooO-------",
"------O$%$$$$%O@@@@@@@@@@@@@@@XXX+O$$$%$$oO-------",
"------O$%$$$$$OXXX.XXXX+XX.XXXXXXXO$$$%$$$O-------",
"------O$$$$OOOOXXX.XXXXXXX.XXXXXXXO$$$$$$$O-------",
"------OOOOO $=O+XX.XXXXXXX.XXXXX+XO$$$$OOOO-------",
"------O$ $$$$=O+XX.+#XXXXX.XX@XX+@OOOOO ooO-------",
"------O$$$$$$$O+XX.+#XXX+X.X@XXX+X@$$$$oooO-------",
"------O$$$$$$$O+XX.+#XXX+..X@XXXXX@$%%$$$oO-------",
"------O$$$$$$$O+XX.+#XXX+..X@XXXXX@$$%%$$$O-------",
"------OOOOOOOOO+XX.+XXXX+..XX@&&&@O$$$$$$$O-------",
"------O$$%$oo$O+XX.+XXXXXX.XXXXXXXO    $$$O-------",
"------O%%%$$o$O+XX.+XXXXXX.XXXXXXXOOOOOOOOO-------",
"------O$$$$$$$OXXX.+XXXXXX.XXXXXXXO$$$$$ooO-------",
"------O$$$$$$$OXXX.+XXXXXX.XXXXXXXO$$$$$$oO-------",
"------O$$$OOOOOXXX.X+XXXXX.XXX#XXXO$%%$$$$O-------",
"------OOOO$$==OXXX.X+XXXXX.XXX#XXXOOOOOOOOO-------",
"------O$$$$$$=OXXX.X+XXXXX.XXX#XXXO$$$    O-------",
"------O$$$%$$$OXXX.X+XXXXX.XXXXXXXO$$$$$$$O-------",
"------O$$$%%$$O@@@@@@@@@@@@@@@XXXXO$$$%%$$O-------",
"------O$$$$$$$O@@*@@*@@*@@*@@@@XXXO$$$$$$$O-------",
"------OOOOOOOOO@@@@@@@@@@@@@@@XXXXOOOOOOOOO-------",
"------O$$$$$ooOXXX.X+XXXXX.XXXXX+XO$      O-------",
"------O$$$$$ooOXXX.X+XX#XX.XXXXX+XO$$$$$o$O-------",
"------O$$$$$$oOXXX.X+XX#XX..XXXX+XO$$%%$ooO-------",
"------O$$$$$$$OXXX.X+XX#XX..XXXX+XO$$$%$$$O-------",
"------O$$$$$$$OXXX.X++X#XX..XXXX+XO$$$$$$$O-------",
"------OOOOOOOOOXXX.XX+XXXX.XXXXXXXOOOOOOOOO-------"
};
