/* XPM */
static char *result[] = {
/* columns rows colors chars-per-pixel */
"50 50 7 1 ",
"  c #8A081C",
". c #9C5A3C",
"X c #FFC20E",
"o c #FFA3B1",
"O c #F5E49C",
"+ c white",
"@ c None",
/* pixels */
"XXX++...............++XXXXXX++...............++XXX",
"XXO++OOOOOOo oOOOOOO++OXXXXO++OOOOOOo oOOOOOO++OXX",
"XO+++OOOOOoo ooOOOOO+++OXXO+++OOOOOoo ooOOOOO+++OX",
"++++OOOOOoo   ooOOOOO++++++++OOOOOoo   ooOOOOO++++",
"+++OOOOOoo     ooOOOOO++++++OOOOOoo     ooOOOOO+++",
".OOOOOOoo       ooOOOOOO..OOOOOOoo       ooOOOOOO.",
".OOOOOoo         ooOOOOO..OOOOOoo         ooOOOOO.",
".OOOOoo           ooOOOO..OOOOoo           ooOOOO.",
".OOOoo             ooOOO..OOOoo             ooOOO.",
".OOoo               ooOO..OOoo               ooOO.",
".Ooo                 ooO..Ooo                 ooO.",
".oo                   oo..oo                   oo.",
".                       ..                       .",
".oo                   oo..oo                   oo.",
".Ooo                 ooO..Ooo                 ooO.",
".OOoo               ooOO..OOoo               ooOO.",
".OOOoo             ooOOO..OOOoo             ooOOO.",
".OOOOoo           ooOOOO..OOOOoo           ooOOOO.",
".OOOOOoo         ooOOOOO..OOOOOoo         ooOOOOO.",
".OOOOOOoo       ooOOOOOO..OOOOOOoo       ooOOOOOO.",
"+++OOOOOoo     ooOOOOO++++++OOOOOoo     ooOOOOO+++",
"++++OOOOOoo   ooOOOOO++++++++OOOOOoo   ooOOOOO++++",
"XO+++OOOOOoo ooOOOOO+++OXXO+++OOOOOoo ooOOOOO+++OX",
"XXO++OOOOOOo oOOOOOO++OXXXXO++OOOOOOo oOOOOOO+@OXX",
"XXX++...............++XXXXXX++...............++XXX",
"XXX++...............++XXXXXX++...............++XXX",
"XXO++OOOOOOo oOOOOOO++OXXXXO++OOOOOOo oOOOOOO++OXX",
"XO+++OOOOOoo ooOOOOO+++OXXO+++OOOOOoo ooOOOOO+++OX",
"++++OOOOOoo   ooOOOOO++++++++OOOOOoo   ooOOOOO++++",
"+++OOOOOoo     ooOOOOO++++++OOOOOoo     ooOOOOO+++",
".OOOOOOoo       ooOOOOOO..OOOOOOoo       ooOOOOOO.",
".OOOOOoo         ooOOOOO..OOOOOoo         ooOOOOO.",
".OOOOoo           ooOOOO..OOOOoo           ooOOOO.",
".OOOoo             ooOOO..OOOoo             ooOOO.",
".OOoo               ooOO..OOoo               ooOO.",
".Ooo                 ooO..Ooo                 ooO.",
".oo                   oo..oo                   oo.",
".                       ..                       .",
".oo                   oo..oo                   oo.",
".Ooo                 ooO..Ooo                 ooO.",
".OOoo               ooOO..OOoo               ooOO.",
".OOOoo             ooOOO..OOOoo             ooOOO.",
".OOOOoo           ooOOOO..OOOOoo           ooOOOO.",
".OOOOOoo         ooOOOOO..OOOOOoo         ooOOOOO.",
".OOOOOOoo       ooOOOOOO..OOOOOOoo       ooOOOOOO.",
"+++OOOOOoo     ooOOOOO++++++OOOOOoo     ooOOOOO+++",
"++++OOOOOoo   ooOOOOO++++++++OOOOOoo   ooOOOOO++++",
"XO+++OOOOOoo ooOOOOO+++OXXO+++OOOOOoo ooOOOOO+++OX",
"XXO++OOOOOOo oOOOOOO++OXXXXO++OOOOOOo oOOOOOO++OXX",
"XXX++...............++XXXXXX++...............++XXX"
};
