/* XPM */
static char *result[] = {
/* columns rows colors chars-per-pixel */
"50 50 12 1 ",
"  c black",
". c #36130B",
"X c #61372E",
"o c #464646",
"O c #455A64",
"+ c #9C5A3C",
"@ c #FFC20E",
"# c #E5AA7A",
"$ c gray63",
"% c #B4B4B4",
"& c #C4C0C4",
"* c #CFD8DC",
/* pixels */
"**************************************************",
"**************************************************",
"**************************************************",
"**************************************************",
"*****************OOOOOOOOOOOOOOO******************",
"****************OoO$$$$$$O$$$$ooO*****************",
"***************O$$%O$$$$oOO$$$$ooO****************",
"**************O$$$$O$$$$ oOO$$$$$$O***************",
"*************O$$$$$O$$$$$ooO$$$$ O$O**************",
"************O O$$$$O$$$&&& O&&&OO$$$O*************",
"***********Ooo OO$$OOOOOOOOOOOO$&&$$$O************",
"**********O$$oo% OO           O$$&$$$$O***********",
"*********OO$$$$%%O.            O$$$$OOOO**********",
"********Oo OOO$$OX.             OOOO $$$O*********",
"*******O$oooo$OOX..              O$$$$$$$O********",
"******O$$$$$$$OXX..               O$$$$$$$O*******",
"******OOOOOOOOOXXX.               OOOOOOOOO*******",
"******O$$$$ ooOXXX.               O&$$ooooO*******",
"******O$$$$$ooOXXX.               O$$$$oooO*******",
"******O$$$$$$oOXXX.               O$$$$$ooO*******",
"******O$$$$$$oOXXX.               O$$$$$$oO*******",
"******O%%%%$$$OXXX.               O$$$$$$oO*******",
"******O$$$$$$$O.XX.@              OOOOOOOOO*******",
"******O$$$$$$$O.XX.@              O$$$$oooO*******",
"******O$%$$$$%O.XX.@              O$$$%$$oO*******",
"******O$%$$$$$O.XX.               O$$$%$$$O*******",
"******O$$$$OOOOXXX.               O$$$$$$$O*******",
"******OOOOO $&OX#X.               O$$$$OOOO*******",
"******O$ $$$$&OX#X.@              OOOOO ooO*******",
"******O$$$$$$$OX#X.@              O$$$$oooO*******",
"******O$$$$$$$OX#X.@              O$%%$$$oO*******",
"******O$$$$$$$OXXX.@              O$$%%$$$O*******",
"******OOOOOOOOOXXX.@              O$$$$$$$O*******",
"******O$$%$oo$OXXX.               O    $$$O*******",
"******O%%%$$o$OXXX.               OOOOOOOOO*******",
"******O$$$$$$$OXX+.               O$$$$$ooO*******",
"******O$$$$$$$OXX+.               O$$$$$$oO*******",
"******O$$$OOOOOXX+.               O$%%$$$$O*******",
"******OOOO$$&&OXX+.               OOOOOOOOO*******",
"******O$$$$$$&OXX+.               O$$$    O*******",
"******O$$$%$$$OXX+.               O$$$$$$$O*******",
"******O$$$%%$$OXX+.@              O$$$%%$$O*******",
"******O$$$$$$$OXX+.@              O$$$$$$$O*******",
"******OOOOOOOOO.XX.@              OOOOOOOOO*******",
"******O$$$$$ooO.XX.               O$      O*******",
"******O$$$$$ooO.XX.               O$$$$$o$O*******",
"******O$$$$$$oO.XX.               O$$%%$ooO*******",
"******O$$$$$$$OXXX.               O$$$%$$$O*******",
"******O$$$$$$$OXXX.               O$$$$$$$O*******",
"******OOOOOOOOOXXX.               OOOOOOOOO*******"
};
