/* XPM */
static char *result[] = {
/* columns rows colors chars-per-pixel */
"50 50 9 1 ",
"  c black",
". c #1A237E",
"X c #283593",
"o c #303F9F",
"O c #3949AB",
"+ c #5C6BC0",
"@ c #7986CB",
"# c #9FA8DA",
"$ c white",
/* pixels */
" ...................          ................... ",
"..XXXXXXXXXXXXXXXXXX.        .XXXXXXXXXXXXXXXXXX..",
".XXooooooooooooooooX..........XooooooooooooooooXX.",
".XooOOOOOOOOOOOOOOoXXXXXXXXXXXXoOOOOOOOOOOOOOOooX.",
".XoO+++++++++++++OooooooooooooooO+++++++++++++OoX.",
".XoO+@@@@@@@@@@@+OOOOOOOOOOOOOOOO+@@@@@@@@@@@+OoX.",
".XoO+@@@@@@@@@@@++++++++++++++++++@@@@@@@@@@@+OoX.",
".XoO+@@@@          @@@@@@@@@@@@          @@@@+OoX.",
".XoO+@@@  $$$$$$$$  ##########  $$$$$$$$  @@@+OoX.",
".XoO+@@@ $$$$$$$$$$ ########## $$$$$$$$$$ @@@+OoX.",
".XoO+@@  $$$    $$$  ########  $$$    $$$  @@+OoX.",
".XoO+@@ $$$      $$$ ######## $$$      $$$ @@+OoX.",
".XoO+@@ $$$    $ $$$ ######## $$$    $ $$$ @@+OoX.",
".XoO+@@ $$        $$ ######## $$        $$ @@+OoX.",
".XoO+@@ $$        $$ ######## $$        $$ @@+OoX.",
".XoO+@@ $$        $$ ######## $$        $$ @@+OoX.",
".XoO+++ $$        $$ ######## $$        $$ +++OoX.",
".XoOOO+@ $        $ ########## $        $ @+OOOoX.",
".XoooO+@ $        $ ########## $        $ @+OoooX.",
".XXXoO+@#          ############          #@+OoXXX.",
" ..XoO+@##################################@+OoX.. ",
"  .XoO+@##################################@+OoX.  ",
"  .XoO+@##################################@+OoX.  ",
"  .XoO+@##################################@+OoX.  ",
"  .XoO+@##################################@+OoX.  ",
"  .XoO+@##################################@+OoX.  ",
"  .XoO+@##################################@+OoX.  ",
"  .XoO+   ##############################   +OoX.  ",
"  .XoO+ $  ############################  $ +OoX.  ",
" ..XoO+ $$  ##########################  $$ +OoX.. ",
".XXXoO+ $$$   ######################   $$$ +OoXXX.",
".XoooO+  $$$$  ####################  $$$$  +OoooX.",
".XoOOO+@ $$$$$        ######        $$$$$ @+OOOoX.",
".XoO+++@  $$$$$$$$$$$        $$$$$$$$$$$  @+++OoX.",
".XoO+@@@@  $$$$$$$$$$$$$$$$$$$$$$$$$$$$  @@@@+OoX.",
".XoO+@@@@@   $$$$$$$$$$$$$$$$$$$$$$$$   @@@@@+OoX.",
".XoO+@@@@@@@   $$$$$$$$$$$$$$$$$$$$   @@@@@@@+OoX.",
".XoO+@@@@@@@@@   $$$$$$$$$$$$$$$$   @@@@@@@@@+OoX.",
".XoO+@@@@@@@@@@@     $$$$$$$$     @@@@@@@@@@@+OoX.",
".XoO+@@@@@@@@@@@@@@@          @@@@@@@@@@@@@@@+OoX.",
".XoO+@@@@@@@@@@@@@@@@@@@@@@@@@@@@@@@@@@@@@@@@+OoX.",
".XoO+@@@@@@@@@@@@@@@@@@@@@@@@@@@@@@@@@@@@@@@@+OoX.",
".XoO+@@@@@@@@@@@@@@@@@@@@@@@@@@@@@@@@@@@@@@@@+OoX.",
".XoO+@@@@@@@@@@@++++++++++++++++++@@@@@@@@@@@+OoX.",
".XoO+@@@@@@@@@@@+OOOOOOOOOOOOOOOO+@@@@@@@@@@@+OoX.",
".XoO+++++++++++++OooooooooooooooO+++++++++++++OoX.",
".XooOOOOOOOOOOOOOOoXXXXXXXXXXXXoOOOOOOOOOOOOOOooX.",
".XXooooooooooooooooX..........XooooooooooooooooXX.",
"..XXXXXXXXXXXXXXXXXX.        .XXXXXXXXXXXXXXXXXX..",
" ...................          ................... "
};
