/* XPM */
static char *_f59e931018e4596a55b05a7fb04312a[] = {
/* columns rows colors chars-per-pixel */
"50 50 14 1 ",
"  c black",
". c #36130B",
"X c #3D2309",
"o c #573E25",
"O c #613D24",
"+ c #61372E",
"@ c #765339",
"# c gray47",
"$ c #855D36",
"% c #85623D",
"& c #A87038",
"* c #9C5B4E",
"= c #82674D",
"- c gray63",
/* pixels */
"oooooooooooooooooooooooooooooooooooooooooooooooooo",
"o%%%%%%%%$%%%%%%%%%%%%%%%%%%&%%%%%%%%%%%%%%%%%%%%o",
"o.#-.%%%%$%%%%%%%%%%%%%%%%%%&%%%%%%%%%%%%%%%%.%%%o",
"o.# -%%%%$%%%%%%%%%%%%%%%%%%%%%%%%%%%%%%%%%%..#%%o",
"o.--.%%%%$%%%%%%%%%%%%%%%%%%%%%%%%%%%%%%%%%%##-%%o",
"o...%%%%%$%%%%%%%%%%%%%%%%%%%%%%%%%%%%%%%%%.#- #%o",
"o%%%%%%%%%%%%%%%%%%%%%%%%%%%%%%%%%%%%%%%%%%%.#-%%o",
"o%%%%%%%%%%%%%%%%%%%%%%%%%%%%%%%%%%%%%%%%%&%%%%%%o",
"o%%%%%%%%%%%%%%%%%%%%%%%%%%%%%%%%%%%%%%%%%&%%%%%%o",
"oooooooooXXXXXXXXXXXXXXXXXXXXXXXXXXXXXXXXooooooooo",
"o%%%%%%%%XoooooooXoooooooX@@@@@@@XOX....X%%%%%%%%o",
"o%%%%%%%%XoooooooXoooooooX@@@@@@@XX*++..X%%%%%%%%o",
"o%%%%%%%%X@@@@@@@XoooooooX@@@@@@OX+++++.X&%%%%%%%o",
"o%%%%%%%%X@@@@@@@XoooooooX@@@@@OX%+***+.X%%%%%%%%o",
"o%%%%%%%%X@@@@@@@XoooooooX@@@@OX%%%%*++XX%%%%%%%%o",
"o%%%%%%%%X@@@@@@@XoooooooX@@@OX%%%%%%*XOX%%%%%%%%o",
"o%%%%%%%%X@@@@@@@XoooooooX@@OX%%%%%%%XOoX%%%%%%%%o",
"o%%%%%%%%X@@@@@@@Xoooooo@X@OX%%%%%%%XOooX%%%%%%%%o",
"o%%%%%%%%X@@@@@@@Xoooo@@@XOX%%%%%%%XOoooX%%%%%%%%o",
"o%%%%%%%%X@@@@@@@Xooo@@@@XX%%%%%%%XoooooX%%%%%%%%o",
"o%%%%%%%%X@@@@@@@Xo@@@@@OX%%%%%%%XooooooX%%%%%%%%o",
"o%%%%%%%%X@@@@@@@X@@@@@OX%%%%%%%XXooooo@X&&&%%%%%o",
"o%%%%%%%%X@@@@@@@X@@@@OX%%%%%%%XOXoooo@@X%%%%%%%%o",
"o%%%%%%%%X@@@@@@@X@@@OX%%%%%%%XO@Xooo@@@X%%%%%%%%o",
"o$$%%%%%%X@@@@@@@X@@OX%%%%%%%XO@@Xooo@@@X%%%%%$%%o",
"o%%%%%%%%X@@@@@@@X@OX%%%%%%%XO@@@Xoo@@@@X%%%$$$%%o",
"o%%%%%%%%X@@@@@@@XOX%%%%%%%XO@@@@Xo@@@@@X%%%%%%%%o",
"o%%%%%%%%X@@@@@@@XX%%%%%%%XO@@@@@Xo@@@@@X%%%%==%%o",
"o%%%%%%%%X@@@@@@OX%%%%%%%XO@@@@@@X@@@@@@X%%%%%=%%o",
"o%%%%%%%%X@@@@@OX%%%%%%%XX@@@@@@@X@@@@@@X%%%%%%%%o",
"o%%%%%%%%Xoo@@OX%%%%%%%XOX@@@@@@@X@@@@@@X%%%%%%%%o",
"o$$$$%%%%Xoo@OX%%%%%%%XO@X@@@@@@@X@@@@@@X%%%%%%%%o",
"o%%%%%%%%XooOX*%%%%%%XO@@X@@@@@@@X@@@@@@X%%%%%%%%o",
"o%%%%%%%%XooX*%+%%%%XO@@@X@@@@@@@X@@@@@@X%%%%%%%%o",
"o%%%%%%%%XOX.+*%%%%XO@@@@X@@@@@@@X@@@@@@X%%%%%%%%o",
"o%%%%%%%%XX.+++**%XO@@@@@X@@@@@@@X@@@@@oX%%%%&&&&o",
"o%%%%%%%%X..*.***XO@@@@@@X@@@@@@@XooooooX%%%%%%%%o",
"o%%%%%%$$X....++XX@@@@@@@X@@@@@@@XooooooX%%%%%%%%o",
"o%%%%%%%%X.....XOX@@@@@@@X@@@@@@@XooooooX%%%%%%%%o",
"o%%%%%%%%X....XO@X@@@@@@@X@@@@@@@XooooooX$$$$$$$&o",
"oooooooooXXXXXXXXXXXXXXXXXXXXXXXXXXXXXXXXooooooooo",
"o%%%%%%%%%=%$%%%%%%%%%%%%%%%%%%%%%%%%%%%%%%%%%%%%o",
"o%%%%%%%%%=%$%%%%%%%%%%%%%%%%%%%%%%%%%%%%%%%%%%%%o",
"o%%%%%%%%%%%$%%%%%%%%%%%%%%%%%%%%%%%%%%%%%%%%%%%%o",
"o%XX%%%%%%%%%%%%%%%%%%%%%%%%%%%%%%%%%%%%%%%%%.-##o",
"o%.#-#%%%%%%%%%%%%%%%%%%%%%%%%%%%%%%%%%%%%%%.- -%o",
"o.- #%%%%%%%%%%%%%%%%%%%%%%&%%%%%%%%%%%%%%%%.#-#%o",
"oX.-%%%%%%%%%%%%%%%%%%%%%%%&%%%%%%%%$$%%%%%%%.%#%o",
"o%XX%%%%%%%%%%%%%%%%%%%%%%%&%%%%%%%%$$%%%%%%%%%%%o",
"oooooooooooooooooooooooooooooooooooooooooooooooooo"
};
